# xmcd CD database file generated by GCD 2.95
# 
# Track frame offsets:
#       150
#       13659
#       26828
#       36962
#       44360
#       56283
#       70198
#       86958
#       96677
#       110038
#       131567
# 
# Disc length: 1838 seconds
# 
# Revision: 3
# Processed by: cddbd v1.4PL0 Copyright (c) Steve Scherf et al.
# Submitted via: GCD 2.95
# 
DISCID=9e072c0b
DTITLE=The Legendary Shackshakers - Cockadoodledon't
DYEAR=1900
DGENRE=
TTITLE0=Pinetree Boogie
TTITLE1=CB Song
TTITLE2=Help Me From My Brain
TTITLE3=Shakerag Holler
TTITLE4=Clodhopper
TTITLE5=Bullfrog Blues
TTITLE6=Blood On The Bluegrass
TTITLE7=Devil's Night Auction
TTITLE8=Wild Wild Lover
TTITLE9=Shake Your Hips
TTITLE10=Hoptown Jailbreak
EXTD=
EXTT0=
EXTT1=
EXTT2=
EXTT3=
EXTT4=
EXTT5=
EXTT6=
EXTT7=
EXTT8=
EXTT9=
EXTT10=
PLAYORDER=
